<svg width="484" height="248" viewBox="0 0 484 248" version="1.1" xmlns="http://www.w3.org/2000/svg" xmlns:xlink="http://www.w3.org/1999/xlink">
<title>Frame</title>
<desc>Created using Figma</desc>
<g id="Canvas" transform="matrix(2 0 0 2 -4752 -282)">
<clipPath id="clip-0" clip-rule="evenodd">
<path d="M 2376 141L 2618 141L 2618 264.101L 2376 264.101L 2376 141Z" fill="#FFFFFF"/>
</clipPath>
<g id="Frame" clip-path="url(#clip-0)">
<path d="M 2376 141L 2618 141L 2618 264.101L 2376 264.101L 2376 141Z" fill="#111111"/>
<g id="Group">
<g id="Line">
<use xlink:href="#path0_stroke" transform="matrix(0.707107 -0.707107 0.707107 0.707107 2493 199.057)" fill="#E0E0E0"/>
</g>
<g id="Line">
<use xlink:href="#path0_stroke" transform="matrix(0.707107 0.707107 -0.707107 0.707107 2458 164)" fill="#E0E0E0"/>
</g>
</g>
<g id="Group">
<g id="Line">
<use xlink:href="#path0_stroke" transform="matrix(-0.707107 0.707107 -0.707107 -0.707107 2493.06 175)" fill="#E0E0E0"/>
</g>
<g id="Line">
<use xlink:href="#path0_stroke" transform="matrix(-0.707107 -0.707107 0.707107 -0.707107 2528.06 210.057)" fill="#E0E0E0"/>
</g>
</g>
<g id="Sean Lawrence">
<use xlink:href="#path1_fill" transform="translate(2432 220)" fill="#E0E0E0"/>
</g>
</g>
</g>
<defs>
<path id="path0_stroke" d="M 0 0L 49.5782 0L 49.5782 -2L 0 -2L 0 0Z"/>
<path id="path1_fill" d="M 8.85938 13.8535C 8.85938 13.1445 8.61035 12.585 8.1123 12.1748C 7.61426 11.7588 6.70313 11.3662 5.37891 10.9971C 4.05469 10.6221 3.08789 10.2148 2.47852 9.77539C 1.61133 9.1543 1.17773 8.33984 1.17773 7.33203C 1.17773 6.35352 1.5791 5.55957 2.38184 4.9502C 3.19043 4.33496 4.22168 4.02734 5.47559 4.02734C 6.3252 4.02734 7.08398 4.19141 7.75195 4.51953C 8.42578 4.84766 8.94727 5.30469 9.31641 5.89062C 9.68555 6.47656 9.87012 7.12988 9.87012 7.85059L 8.78027 7.85059C 8.78027 6.97754 8.48145 6.27734 7.88379 5.75C 7.28613 5.2168 6.4834 4.9502 5.47559 4.9502C 4.49707 4.9502 3.71777 5.16992 3.1377 5.60938C 2.55762 6.04297 2.26758 6.61133 2.26758 7.31445C 2.26758 7.96484 2.52832 8.49512 3.0498 8.90527C 3.57129 9.31543 4.40625 9.67871 5.55469 9.99512C 6.70313 10.3057 7.57324 10.6309 8.16504 10.9707C 8.75684 11.3047 9.20215 11.7061 9.50098 12.1748C 9.7998 12.6436 9.94922 13.1973 9.94922 13.8359C 9.94922 14.8438 9.54492 15.6523 8.73633 16.2617C 7.93359 16.8711 6.87305 17.1758 5.55469 17.1758C 4.65234 17.1758 3.82324 17.0146 3.06738 16.6924C 2.31738 16.3701 1.74609 15.9189 1.35352 15.3389C 0.966797 14.7588 0.773438 14.0938 0.773438 13.3438L 1.85449 13.3438C 1.85449 14.2461 2.19141 14.958 2.86523 15.4795C 3.53906 16.001 4.43555 16.2617 5.55469 16.2617C 6.55078 16.2617 7.35059 16.042 7.9541 15.6025C 8.55762 15.1631 8.85938 14.5801 8.85938 13.8535ZM 15.7236 17.1758C 14.915 17.1758 14.1826 16.9766 13.5264 16.5781C 12.876 16.1797 12.3691 15.626 12.0059 14.917C 11.6426 14.2021 11.4609 13.4023 11.4609 12.5176L 11.4609 12.1396C 11.4609 11.2256 11.6367 10.4023 11.9883 9.66992C 12.3457 8.9375 12.8408 8.36328 13.4736 7.94727C 14.1064 7.52539 14.792 7.31445 15.5303 7.31445C 16.6846 7.31445 17.5986 7.70996 18.2725 8.50098C 18.9521 9.28613 19.292 10.3613 19.292 11.7266L 19.292 12.3154L 12.5068 12.3154L 12.5068 12.5176C 12.5068 13.5957 12.8145 14.4951 13.4297 15.2158C 14.0508 15.9307 14.8301 16.2881 15.7676 16.2881C 16.3301 16.2881 16.8252 16.1855 17.2529 15.9805C 17.6865 15.7754 18.0791 15.4473 18.4307 14.9961L 19.0898 15.4971C 18.3164 16.6162 17.1943 17.1758 15.7236 17.1758ZM 15.5303 8.21094C 14.7393 8.21094 14.0713 8.50098 13.5264 9.08105C 12.9873 9.66113 12.6592 10.4404 12.542 11.4189L 18.2461 11.4189L 18.2461 11.3047C 18.2168 10.3906 17.9561 9.64648 17.4639 9.07227C 16.9717 8.49805 16.3271 8.21094 15.5303 8.21094ZM 27.3428 17C 27.2373 16.7012 27.1699 16.2588 27.1406 15.6729C 26.7715 16.1533 26.2998 16.5254 25.7256 16.7891C 25.1572 17.0469 24.5537 17.1758 23.915 17.1758C 23.001 17.1758 22.2598 16.9209 21.6914 16.4111C 21.1289 15.9014 20.8477 15.2568 20.8477 14.4775C 20.8477 13.5518 21.2314 12.8193 21.999 12.2803C 22.7725 11.7412 23.8477 11.4717 25.2246 11.4717L 27.1318 11.4717L 27.1318 10.3906C 27.1318 9.71094 26.9209 9.17773 26.499 8.79102C 26.083 8.39844 25.4736 8.20215 24.6709 8.20215C 23.9385 8.20215 23.332 8.38965 22.8516 8.76465C 22.3711 9.13965 22.1309 9.59082 22.1309 10.1182L 21.0762 10.1094C 21.0762 9.35352 21.4277 8.7002 22.1309 8.14941C 22.834 7.59277 23.6982 7.31445 24.7236 7.31445C 25.7842 7.31445 26.6191 7.58106 27.2285 8.11426C 27.8438 8.6416 28.1602 9.37988 28.1777 10.3291L 28.1777 14.8291C 28.1777 15.749 28.2744 16.4375 28.4678 16.8945L 28.4678 17L 27.3428 17ZM 24.0381 16.2441C 24.7412 16.2441 25.3682 16.0742 25.9189 15.7344C 26.4756 15.3945 26.8799 14.9404 27.1318 14.3721L 27.1318 12.2803L 25.251 12.2803C 24.2021 12.292 23.3818 12.4854 22.79 12.8604C 22.1982 13.2295 21.9023 13.7393 21.9023 14.3896C 21.9023 14.9229 22.0986 15.3652 22.4912 15.7168C 22.8896 16.0684 23.4053 16.2441 24.0381 16.2441ZM 31.9922 7.49023L 32.0273 9.11621C 32.3848 8.53027 32.8301 8.08496 33.3633 7.78027C 33.8965 7.46973 34.4854 7.31445 35.1299 7.31445C 36.1494 7.31445 36.9082 7.60156 37.4062 8.17578C 37.9043 8.75 38.1562 9.61133 38.1621 10.7598L 38.1621 17L 37.1162 17L 37.1162 10.751C 37.1104 9.90137 36.9287 9.26855 36.5713 8.85254C 36.2197 8.43652 35.6543 8.22852 34.875 8.22852C 34.2246 8.22852 33.6475 8.43359 33.1436 8.84375C 32.6455 9.24805 32.2764 9.7959 32.0361 10.4873L 32.0361 17L 30.9902 17L 30.9902 7.49023L 31.9922 7.49023ZM 46.5996 16.0859L 52.9189 16.0859L 52.9189 17L 45.5098 17L 45.5098 4.20312L 46.5996 4.20312L 46.5996 16.0859ZM 60.7588 17C 60.6533 16.7012 60.5859 16.2588 60.5566 15.6729C 60.1875 16.1533 59.7158 16.5254 59.1416 16.7891C 58.5732 17.0469 57.9697 17.1758 57.3311 17.1758C 56.417 17.1758 55.6758 16.9209 55.1074 16.4111C 54.5449 15.9014 54.2637 15.2568 54.2637 14.4775C 54.2637 13.5518 54.6475 12.8193 55.415 12.2803C 56.1885 11.7412 57.2637 11.4717 58.6406 11.4717L 60.5479 11.4717L 60.5479 10.3906C 60.5479 9.71094 60.3369 9.17773 59.915 8.79102C 59.499 8.39844 58.8896 8.20215 58.0869 8.20215C 57.3545 8.20215 56.748 8.38965 56.2676 8.76465C 55.7871 9.13965 55.5469 9.59082 55.5469 10.1182L 54.4922 10.1094C 54.4922 9.35352 54.8438 8.7002 55.5469 8.14941C 56.25 7.59277 57.1143 7.31445 58.1396 7.31445C 59.2002 7.31445 60.0352 7.58106 60.6445 8.11426C 61.2598 8.6416 61.5762 9.37988 61.5938 10.3291L 61.5938 14.8291C 61.5938 15.749 61.6904 16.4375 61.8838 16.8945L 61.8838 17L 60.7588 17ZM 57.4541 16.2441C 58.1572 16.2441 58.7842 16.0742 59.335 15.7344C 59.8916 15.3945 60.2959 14.9404 60.5479 14.3721L 60.5479 12.2803L 58.667 12.2803C 57.6182 12.292 56.7979 12.4854 56.2061 12.8604C 55.6143 13.2295 55.3184 13.7393 55.3184 14.3896C 55.3184 14.9229 55.5146 15.3652 55.9072 15.7168C 56.3057 16.0684 56.8213 16.2441 57.4541 16.2441ZM 66.6826 14.8115L 66.8408 15.6289L 67.0518 14.7676L 69.3369 7.49023L 70.2334 7.49023L 72.4922 14.7061L 72.7383 15.708L 72.9404 14.7852L 74.8916 7.49023L 75.9814 7.49023L 73.2129 17L 72.3164 17L 69.873 9.45898L 69.7588 8.94043L 69.6445 9.46777L 67.2451 17L 66.3486 17L 63.5889 7.49023L 64.6699 7.49023L 66.6826 14.8115ZM 82.3711 8.38672C 82.1484 8.3457 81.9111 8.3252 81.6592 8.3252C 81.0029 8.3252 80.4463 8.50977 79.9893 8.87891C 79.5381 9.24219 79.2158 9.77246 79.0225 10.4697L 79.0225 17L 77.9766 17L 77.9766 7.49023L 79.0049 7.49023L 79.0225 9.00195C 79.5791 7.87695 80.4727 7.31445 81.7031 7.31445C 81.9961 7.31445 82.2275 7.35254 82.3975 7.42871L 82.3711 8.38672ZM 87.5479 17.1758C 86.7393 17.1758 86.0068 16.9766 85.3506 16.5781C 84.7002 16.1797 84.1934 15.626 83.8301 14.917C 83.4668 14.2021 83.2852 13.4023 83.2852 12.5176L 83.2852 12.1396C 83.2852 11.2256 83.4609 10.4023 83.8125 9.66992C 84.1699 8.9375 84.665 8.36328 85.2979 7.94727C 85.9307 7.52539 86.6162 7.31445 87.3545 7.31445C 88.5088 7.31445 89.4229 7.70996 90.0967 8.50098C 90.7764 9.28613 91.1162 10.3613 91.1162 11.7266L 91.1162 12.3154L 84.3311 12.3154L 84.3311 12.5176C 84.3311 13.5957 84.6387 14.4951 85.2539 15.2158C 85.875 15.9307 86.6543 16.2881 87.5918 16.2881C 88.1543 16.2881 88.6494 16.1855 89.0771 15.9805C 89.5107 15.7754 89.9033 15.4473 90.2549 14.9961L 90.9141 15.4971C 90.1406 16.6162 89.0186 17.1758 87.5479 17.1758ZM 87.3545 8.21094C 86.5635 8.21094 85.8955 8.50098 85.3506 9.08105C 84.8115 9.66113 84.4834 10.4404 84.3662 11.4189L 90.0703 11.4189L 90.0703 11.3047C 90.041 10.3906 89.7803 9.64648 89.2881 9.07227C 88.7959 8.49805 88.1514 8.21094 87.3545 8.21094ZM 94.166 7.49023L 94.2012 9.11621C 94.5586 8.53027 95.0039 8.08496 95.5371 7.78027C 96.0703 7.46973 96.6592 7.31445 97.3037 7.31445C 98.3232 7.31445 99.082 7.60156 99.5801 8.17578C 100.078 8.75 100.33 9.61133 100.336 10.7598L 100.336 17L 99.29 17L 99.29 10.751C 99.2842 9.90137 99.1025 9.26855 98.7451 8.85254C 98.3936 8.43652 97.8281 8.22852 97.0488 8.22852C 96.3984 8.22852 95.8213 8.43359 95.3174 8.84375C 94.8193 9.24805 94.4502 9.7959 94.21 10.4873L 94.21 17L 93.1641 17L 93.1641 7.49023L 94.166 7.49023ZM 106.576 16.2881C 107.309 16.2881 107.921 16.083 108.413 15.6729C 108.911 15.2568 109.181 14.7207 109.222 14.0645L 110.232 14.0645C 110.203 14.6445 110.021 15.1748 109.688 15.6553C 109.354 16.1299 108.908 16.502 108.352 16.7715C 107.801 17.041 107.209 17.1758 106.576 17.1758C 105.328 17.1758 104.338 16.7422 103.605 15.875C 102.879 15.0078 102.516 13.8418 102.516 12.377L 102.516 12.0605C 102.516 11.123 102.68 10.2939 103.008 9.57324C 103.336 8.85254 103.805 8.2959 104.414 7.90332C 105.029 7.51074 105.747 7.31445 106.567 7.31445C 107.61 7.31445 108.469 7.625 109.143 8.24609C 109.822 8.86719 110.186 9.68457 110.232 10.6982L 109.222 10.6982C 109.175 9.9541 108.905 9.35352 108.413 8.89648C 107.927 8.43945 107.312 8.21094 106.567 8.21094C 105.618 8.21094 104.88 8.55371 104.353 9.23926C 103.831 9.9248 103.57 10.8857 103.57 12.1221L 103.57 12.4297C 103.57 13.6426 103.831 14.5889 104.353 15.2686C 104.88 15.9482 105.621 16.2881 106.576 16.2881ZM 116.024 17.1758C 115.216 17.1758 114.483 16.9766 113.827 16.5781C 113.177 16.1797 112.67 15.626 112.307 14.917C 111.943 14.2021 111.762 13.4023 111.762 12.5176L 111.762 12.1396C 111.762 11.2256 111.938 10.4023 112.289 9.66992C 112.646 8.9375 113.142 8.36328 113.774 7.94727C 114.407 7.52539 115.093 7.31445 115.831 7.31445C 116.985 7.31445 117.899 7.70996 118.573 8.50098C 119.253 9.28613 119.593 10.3613 119.593 11.7266L 119.593 12.3154L 112.808 12.3154L 112.808 12.5176C 112.808 13.5957 113.115 14.4951 113.73 15.2158C 114.352 15.9307 115.131 16.2881 116.068 16.2881C 116.631 16.2881 117.126 16.1855 117.554 15.9805C 117.987 15.7754 118.38 15.4473 118.731 14.9961L 119.391 15.4971C 118.617 16.6162 117.495 17.1758 116.024 17.1758ZM 115.831 8.21094C 115.04 8.21094 114.372 8.50098 113.827 9.08105C 113.288 9.66113 112.96 10.4404 112.843 11.4189L 118.547 11.4189L 118.547 11.3047C 118.518 10.3906 118.257 9.64648 117.765 9.07227C 117.272 8.49805 116.628 8.21094 115.831 8.21094Z"/>
</defs>
</svg>
